<?xml version="1.0" encoding="utf-8"?>
<!-- Svg Vector Icons : http://www.onlinewebfonts.com/icon -->
<!DOCTYPE svg PUBLIC "-//W3C//DTD SVG 1.1//EN" "http://www.w3.org/Graphics/SVG/1.1/DTD/svg11.dtd">
<svg version="1.1" xmlns="http://www.w3.org/2000/svg" xmlns:xlink="http://www.w3.org/1999/xlink" x="0px" y="0px" viewBox="0 0 256 256" enable-background="new 0 0 256 256" xml:space="preserve">
<metadata> Svg Vector Icons : http://www.onlinewebfonts.com/icon </metadata>
<g><g><path stroke-width="3" fill="#e2a600" fill-opacity="1" stroke=""  d="M163.2,137.2c21.4-12.5,35.8-35.6,35.8-62c0-39.6-32.2-71.8-71.8-71.8c-39.6,0-71.8,32.2-71.8,71.8c0,26.7,14.7,50,36.4,62.4c-46,15.9-79.7,61.1-81.8,115h16.9c2.7-58,46.9-104.3,101.1-104.3s98.4,46.3,101.1,104.3H246C243.8,198.3,209.7,152.8,163.2,137.2z M127.2,130.1c-30.3,0-54.9-24.6-54.9-54.9c0-30.3,24.6-54.9,54.9-54.9c30.3,0,54.9,24.6,54.9,54.9C182.1,105.5,157.5,130.1,127.2,130.1z"/></g></g>
</svg>