<?xml version="1.0" encoding="utf-8"?>
<!-- Svg Vector Icons : http://www.onlinewebfonts.com/icon -->
<!DOCTYPE svg PUBLIC "-//W3C//DTD SVG 1.1//EN" "http://www.w3.org/Graphics/SVG/1.1/DTD/svg11.dtd">
<svg version="1.1" xmlns="http://www.w3.org/2000/svg" xmlns:xlink="http://www.w3.org/1999/xlink" x="0px" y="0px" viewBox="0 0 256 256" enable-background="new 0 0 256 256" xml:space="preserve">
<metadata> Svg Vector Icons : http://www.onlinewebfonts.com/icon </metadata>
<g><g><g><path stroke-width="3" fill-opacity="0" stroke="#000000"  d="M10,64v20.4h20.8h20.8l-0.1-20.3l-0.1-20.2l-20.7-0.1L10,43.7V64z M35.2,64.3v4.1h-4.6H26v-4.1v-4.1h4.6h4.6L35.2,64.3L35.2,64.3z"/><path stroke-width="3" fill-opacity="0" stroke="#000000"  d="M67.2,64v20.4h89.4H246V64V43.7h-89.4H67.2V64z M230,64.3v4.1l-73.3-0.1l-73.3-0.1l-0.1-4l-0.1-4h73.5H230L230,64.3L230,64.3z"/><path stroke-width="3" fill-opacity="0" stroke="#000000"  d="M10,127.8v20.1h20.8h20.8v-20.1v-20.1H30.8H10V127.8z M35.2,127.8v4.1h-4.6H26v-4.1v-4.1h4.6h4.6L35.2,127.8L35.2,127.8z"/><path stroke-width="3" fill-opacity="0" stroke="#000000"  d="M67.2,127.8v20.1h89.4H246v-20.1v-20.1h-89.4H67.2V127.8z M230,127.8v4.1h-73.4H83.2v-4.1v-4.1h73.4H230L230,127.8L230,127.8z"/><path stroke-width="3" fill-opacity="0" stroke="#000000"  d="M10,192.2v20.1h20.8h20.8v-20.1v-20.1H30.8H10V192.2z M35.2,192.2v4.1h-4.6H26v-4.1v-4.1h4.6h4.6L35.2,192.2L35.2,192.2z"/><path stroke-width="3" fill-opacity="0" stroke="#000000"  d="M67.2,192.2v20.1h89.4H246v-20.1v-20.1h-89.4H67.2V192.2z M230,192.2v4.1h-73.4H83.2v-4.1v-4.1h73.4H230L230,192.2L230,192.2z"/></g></g></g>
</svg>