<?xml version="1.0" encoding="utf-8"?>
<!-- Svg Vector Icons : http://www.onlinewebfonts.com/icon -->
<!DOCTYPE svg PUBLIC "-//W3C//DTD SVG 1.1//EN" "http://www.w3.org/Graphics/SVG/1.1/DTD/svg11.dtd">
<svg version="1.1" xmlns="http://www.w3.org/2000/svg" xmlns:xlink="http://www.w3.org/1999/xlink" x="0px" y="0px" viewBox="0 0 256 256" enable-background="new 0 0 256 256" xml:space="preserve">
<metadata> Svg Vector Icons : http://www.onlinewebfonts.com/icon </metadata>
<g><g><path stroke-width="3" fill="#e2a600" fill-opacity="1" stroke=""  d="M236.7,82.1c-5.9-14.1-14.4-26.7-25.3-37.5c-10.8-10.8-23.5-19.3-37.5-25.3c-14.6-6.2-30-9.3-45.9-9.3s-31.4,3.1-45.9,9.3C68,25.2,55.4,33.7,44.6,44.6C33.7,55.4,25.2,68,19.3,82.1c-6.2,14.6-9.3,30-9.3,45.9s3.1,31.4,9.3,45.9c5.9,14.1,14.4,26.7,25.3,37.5c10.8,10.8,23.5,19.3,37.5,25.3c14.6,6.2,30,9.3,45.9,9.3s31.4-3.1,45.9-9.3c14.1-5.9,26.7-14.4,37.5-25.3c10.8-10.8,19.3-23.5,25.3-37.5c6.2-14.6,9.3-30,9.3-45.9S242.9,96.6,236.7,82.1L236.7,82.1z M128,218.8c-50.1,0-90.8-40.7-90.8-90.8S77.9,37.2,128,37.2s90.8,40.7,90.8,90.8S178.1,218.8,128,218.8L128,218.8z"/><path stroke-width="3" fill="#e2a600" fill-opacity="1" stroke=""  d="M174.4,125.2h-41.4h-6.5c-2.5,0-3.7-1.7-2.6-3.7l2.7-5.5c6.9-13.7,19.3-38.6,22-44c3.3-6.5-1.4-11-5.9-11h-27.1c-2.5,0-5.3,1.9-6.3,4.1c0,0-31.5,72.1-33.4,76.1c-2.2,4.8,0,11,6.2,11c9.3-0.1,46.2,0.1,46.2,0.1c2.5,0,4.2,2,3.8,4.5c0,0-8,51.2-8.6,54.3c-0.5,2.6,2.9,3.8,4.3,1.5c1.6-2.4,36-54,51.6-76.7C183.4,130.3,179.1,125.2,174.4,125.2L174.4,125.2L174.4,125.2z"/></g></g>
</svg>